<svg width="477" height="396" viewBox="0 0 477 396" fill="none" xmlns="http://www.w3.org/2000/svg">
<g id="monster">
<path d="M476 44.9998C417 -21.0004 77.7143 -17.0003 100.857 83.9998C124 185 0.429077 165.5 0.429077 165.5L80.001 227L107.144 284L175.001 236L185.001 162H216.572C216.572 162 455 134 476 44.9998Z" fill="#13D577"/>
<path d="M160.001 395L304 266L216.572 162H185.001L175.001 236L107.144 284L160.001 395Z" fill="#4FD695"/>
<path d="M107.144 284L80.001 227L0.429077 165.5C0.429077 165.5 124 185 100.857 83.9998C77.7143 -17.0003 417 -21.0004 476 44.9998C455 134 216.572 162 216.572 162M107.144 284L160.001 395L304 266L216.572 162M107.144 284L175.001 236L185.001 162H216.572" stroke="black"/>
</g>
</svg>
